# xmcd
#
# Track frame offsets: 
#        150
#        23873
#        56711
#        82155
#        117020
#        143030
#        161171
#        184600
#        201380
#        222002
#        247278
#        263892
#        284620
#        308962
#
# Disc length: 4428 seconds
#
# Revision: 0
# Processed by: cddbd v1.5PL3 Copyright (c) Steve Scherf et al.
# Submitted via: ExactAudioCopy v0.95a5
#
DISCID=da114a0e
DTITLE=Clapton Eric - Pilgrim
DYEAR=2007
DGENRE=Terror
TTITLE0=My Father's Eyes
TTITLE1=River Of Tears
TTITLE2=Pilgrim
TTITLE3=Broken Hearted
TTITLE4=One Chance
TTITLE5=Circus
TTITLE6=Going Down Slow
TTITLE7=Fall Like Rain
TTITLE8=Born In Time
TTITLE9=Sick And Tired
TTITLE10=Needs His Woman
TTITLE11=She's Gone
TTITLE12=You Were There
TTITLE13=Inside Of Me
EXTD=
EXTT0=
EXTT1=
EXTT2=
EXTT3=
EXTT4=
EXTT5=
EXTT6=
EXTT7=
EXTT8=
EXTT9=
EXTT10=
EXTT11=
EXTT12=
EXTT13=
PLAYORDER=
